<svg width="166" height="192" viewBox="0 0 166 192" fill="none" xmlns="http://www.w3.org/2000/svg">
<path d="M165.421 52.2764V139.723L82.96 191.409L0.5 139.723V52.2764L82.96 0.589844L165.421 52.2764Z" fill="black" stroke="black"/>
<path d="M120.826 133.895L155 106H11L45.1744 133.895L32.0304 149.142L78.8231 144.142V162.811H83.0292H87.1769V144.142L133.97 149.142L120.826 133.895Z" fill="#FF3E2E"/>
<path d="M112.413 33.2286L83.0292 16L53.5866 33.2286L66.7306 76.4625L35.7108 43.6888L11 58.1485V81H155V58.1485L130.289 43.6888L99.2694 76.4625L112.413 33.2286Z" fill="#FF3E2E"/>
<path d="M89.8073 185.265L87.9674 182.338L88.6241 181.925L89.2775 182.965L89.5889 182.769L88.9355 181.73L89.5922 181.317L91.4321 184.244L90.7754 184.657L89.9817 183.394L89.6702 183.59L90.464 184.852L89.8073 185.265ZM92.0082 183.882L90.5669 181.589L90.1748 181.835L89.7761 181.201L91.2209 180.293L91.6195 180.927L91.2274 181.174L92.6686 183.467L92.0082 183.882ZM93.528 182.926L92.0867 180.634L91.6946 180.88L91.2959 180.246L92.7407 179.338L93.1393 179.972L92.7472 180.218L94.1884 182.511L93.528 182.926ZM94.7644 182.149L92.9245 179.222L93.7595 178.697C93.9421 178.582 94.1149 178.53 94.2778 178.539C94.4419 178.547 94.5955 178.607 94.7384 178.718C94.8806 178.828 95.0122 178.979 95.1333 179.171C95.2497 179.356 95.3298 179.534 95.3736 179.703C95.4174 179.873 95.4113 180.031 95.3553 180.178C95.3006 180.324 95.1819 180.455 94.9993 180.57L94.7685 180.715L95.4136 181.741L94.7644 182.149ZM94.3958 180.122L94.4333 180.098C94.5559 180.021 94.6105 179.941 94.5971 179.859C94.5838 179.777 94.5425 179.681 94.4733 179.57C94.4096 179.469 94.344 179.395 94.2763 179.349C94.2092 179.3 94.1256 179.307 94.0255 179.37L93.9523 179.416L94.3958 180.122ZM97.3839 180.544C97.0824 180.734 96.8176 180.796 96.5894 180.73C96.3624 180.663 96.146 180.466 95.9399 180.138L95.8727 180.031L96.5257 179.621L96.6495 179.818C96.6975 179.894 96.7465 179.947 96.7965 179.977C96.847 180.004 96.901 180 96.9586 179.964C97.0186 179.926 97.0501 179.884 97.0529 179.839C97.0562 179.791 97.0386 179.737 97.0001 179.676C96.949 179.594 96.8782 179.543 96.7878 179.521C96.6986 179.499 96.5612 179.479 96.3756 179.461L95.9512 179.419C95.7709 179.401 95.62 179.351 95.4984 179.269C95.3768 179.187 95.2649 179.064 95.1627 178.902C95.0031 178.648 94.9435 178.408 94.984 178.184C95.0257 177.959 95.1704 177.769 95.418 177.613C95.7207 177.423 95.9848 177.366 96.2102 177.445C96.4369 177.522 96.6461 177.713 96.838 178.019L96.1681 178.44L96.0667 178.278C95.9991 178.171 95.9152 178.148 95.8152 178.211C95.7651 178.243 95.7377 178.281 95.7328 178.326C95.7271 178.37 95.7388 178.415 95.7679 178.461C95.797 178.507 95.8351 178.544 95.8824 178.572C95.93 178.598 96.0143 178.618 96.1353 178.633L96.7108 178.703C96.9204 178.729 97.0998 178.781 97.2489 178.86C97.398 178.939 97.5347 179.077 97.659 179.275C97.7454 179.412 97.8014 179.557 97.8269 179.708C97.8536 179.859 97.8338 180.007 97.7676 180.151C97.7007 180.295 97.5727 180.426 97.3839 180.544ZM97.1858 178.072L96.8343 177.513L97.506 177.091L97.8575 177.65L97.1858 178.072ZM98.0574 179.459L97.7059 178.9L98.3776 178.477L98.7291 179.037L98.0574 179.459ZM99.1944 179.364L97.8796 175.566L98.5626 175.136L99.8755 178.936L99.1944 179.364ZM100.752 178.386L99.4369 174.587L100.12 174.157L101.433 177.957L100.752 178.386ZM103.183 176.899C102.908 177.072 102.657 177.122 102.43 177.05C102.203 176.977 101.995 176.79 101.806 176.49L100.522 174.447L101.163 174.043L102.443 176.079C102.478 176.134 102.514 176.185 102.553 176.233C102.59 176.279 102.631 176.311 102.674 176.329C102.717 176.348 102.763 176.341 102.813 176.31C102.864 176.277 102.892 176.239 102.894 176.193C102.896 176.147 102.884 176.096 102.857 176.042C102.831 175.986 102.8 175.931 102.766 175.876L101.486 173.84L102.128 173.437L103.412 175.48C103.601 175.781 103.679 176.049 103.646 176.286C103.613 176.522 103.459 176.726 103.183 176.899ZM104.48 176.042L102.285 173.338L102.931 172.932L104.408 174.912L103.299 172.701L103.914 172.314L105.42 174.286L104.267 172.093L104.92 171.682L106.399 174.836L105.608 175.333L104.442 173.846L105.285 175.536L104.48 176.042ZM106.825 174.568L105.304 171.44L106.425 170.736L108.578 173.466L107.953 173.859L107.575 173.353L107.17 173.608L107.467 174.164L106.825 174.568ZM106.171 171.628L106.893 173.047L107.181 172.865L106.201 171.609L106.171 171.628ZM109.48 172.941C109.009 173.237 108.561 173.048 108.136 172.372L107.484 171.335C107.096 170.718 107.173 170.24 107.713 169.9C107.936 169.76 108.132 169.693 108.302 169.7C108.471 169.705 108.625 169.769 108.765 169.891C108.904 170.013 109.04 170.179 109.173 170.391L108.528 170.796L108.433 170.646C108.388 170.575 108.341 170.522 108.291 170.487C108.242 170.45 108.186 170.451 108.125 170.489C108.049 170.537 108.014 170.595 108.022 170.662C108.03 170.728 108.053 170.792 108.092 170.853L108.855 172.067C108.911 172.156 108.968 172.221 109.026 172.263C109.084 172.303 109.147 172.302 109.215 172.26C109.285 172.216 109.314 172.159 109.301 172.09C109.29 172.019 109.255 171.937 109.198 171.846L109.049 171.61L108.873 171.721L108.514 171.15L109.321 170.643L110.383 172.332L110.118 172.498L109.831 172.291C109.845 172.568 109.728 172.785 109.48 172.941ZM111.353 171.764C110.881 172.06 110.433 171.871 110.009 171.195L109.356 170.158C108.969 169.541 109.045 169.063 109.586 168.723C109.808 168.583 110.004 168.516 110.174 168.523C110.344 168.528 110.498 168.592 110.637 168.714C110.777 168.836 110.913 169.002 111.046 169.214L110.4 169.619L110.306 169.469C110.261 169.398 110.214 169.345 110.164 169.31C110.114 169.273 110.059 169.274 109.998 169.312C109.921 169.36 109.887 169.418 109.894 169.485C109.903 169.551 109.926 169.615 109.965 169.676L110.728 170.89C110.783 170.979 110.84 171.044 110.898 171.086C110.957 171.126 111.02 171.125 111.087 171.083C111.157 171.039 111.186 170.982 111.174 170.913C111.162 170.842 111.128 170.76 111.071 170.669L110.922 170.433L110.746 170.543L110.387 169.973L111.194 169.466L112.255 171.155L111.991 171.321L111.704 171.114C111.717 171.391 111.601 171.608 111.353 171.764ZM113.329 170.522C113.027 170.711 112.762 170.773 112.534 170.707C112.307 170.64 112.091 170.443 111.885 170.115L111.817 170.008L112.47 169.598L112.594 169.795C112.642 169.871 112.691 169.924 112.741 169.954C112.792 169.981 112.846 169.977 112.903 169.941C112.963 169.903 112.995 169.862 112.998 169.816C113.001 169.769 112.983 169.714 112.945 169.653C112.894 169.572 112.823 169.52 112.733 169.499C112.643 169.476 112.506 169.456 112.32 169.438L111.896 169.396C111.716 169.379 111.565 169.329 111.443 169.246C111.322 169.164 111.21 169.041 111.107 168.879C110.948 168.625 110.888 168.386 110.929 168.161C110.97 167.936 111.115 167.746 111.363 167.59C111.666 167.4 111.93 167.344 112.155 167.422C112.382 167.499 112.591 167.691 112.783 167.996L112.113 168.417L112.011 168.256C111.944 168.148 111.86 168.126 111.76 168.189C111.71 168.22 111.682 168.258 111.678 168.303C111.672 168.347 111.684 168.392 111.713 168.438C111.742 168.485 111.78 168.522 111.827 168.55C111.875 168.575 111.959 168.596 112.08 168.61L112.656 168.681C112.865 168.706 113.045 168.758 113.194 168.837C113.343 168.916 113.479 169.054 113.604 169.252C113.69 169.39 113.746 169.534 113.772 169.686C113.798 169.836 113.779 169.984 113.712 170.129C113.645 170.272 113.518 170.403 113.329 170.522ZM114.256 169.894L113.905 169.335L114.576 168.913L114.928 169.472L114.256 169.894ZM115.879 168.919C115.407 169.215 114.959 169.026 114.534 168.35L113.882 167.313C113.494 166.696 113.571 166.218 114.111 165.878C114.334 165.738 114.53 165.672 114.7 165.678C114.869 165.684 115.023 165.747 115.163 165.869C115.302 165.991 115.438 166.157 115.571 166.369L114.926 166.774L114.831 166.624C114.787 166.553 114.739 166.5 114.689 166.465C114.64 166.428 114.585 166.429 114.523 166.467C114.447 166.515 114.412 166.573 114.42 166.64C114.428 166.706 114.452 166.77 114.49 166.831L115.253 168.045C115.309 168.134 115.366 168.199 115.424 168.241C115.482 168.282 115.545 168.28 115.613 168.238C115.683 168.194 115.712 168.137 115.7 168.068C115.688 167.997 115.654 167.916 115.596 167.824L115.448 167.588L115.271 167.699L114.913 167.128L115.719 166.621L116.781 168.31L116.516 168.476L116.229 168.269C116.243 168.547 116.126 168.763 115.879 168.919ZM117.021 168.159L115.181 165.232L115.819 164.831L117.659 167.758L117.021 168.159ZM118.205 167.415L116.764 165.122L116.372 165.368L115.973 164.734L117.418 163.826L117.816 164.46L117.424 164.707L118.865 166.999L118.205 167.415ZM119.441 166.637L117.602 163.71L118.258 163.298L118.912 164.337L119.223 164.141L118.57 163.102L119.226 162.689L121.066 165.616L120.41 166.029L119.616 164.766L119.304 164.962L120.098 166.225L119.441 166.637ZM122.142 164.982C121.866 165.155 121.615 165.205 121.389 165.133C121.161 165.06 120.953 164.873 120.764 164.573L119.48 162.53L120.121 162.126L121.401 164.162C121.436 164.217 121.472 164.268 121.511 164.316C121.548 164.362 121.589 164.394 121.632 164.413C121.675 164.431 121.721 164.424 121.771 164.393C121.823 164.361 121.85 164.322 121.852 164.276C121.855 164.23 121.842 164.179 121.815 164.125C121.789 164.07 121.758 164.014 121.724 163.959L120.444 161.924L121.086 161.52L122.37 163.564C122.559 163.864 122.637 164.132 122.604 164.369C122.571 164.605 122.417 164.809 122.142 164.982ZM123.179 164.288L121.339 161.361L122.234 160.798C122.474 160.647 122.686 160.597 122.869 160.646C123.052 160.693 123.228 160.851 123.397 161.12L123.437 161.184C123.535 161.339 123.585 161.482 123.59 161.614C123.595 161.745 123.55 161.861 123.455 161.963C123.57 161.925 123.676 161.925 123.774 161.961C123.872 161.995 123.964 162.056 124.048 162.143C124.132 162.229 124.211 162.331 124.285 162.449C124.347 162.548 124.397 162.653 124.436 162.765C124.475 162.875 124.493 162.986 124.49 163.1C124.487 163.212 124.453 163.322 124.388 163.429C124.324 163.535 124.219 163.634 124.074 163.725L123.179 164.288ZM122.708 162.105L122.843 162.021C122.904 161.982 122.928 161.933 122.916 161.875C122.904 161.816 122.877 161.754 122.835 161.688L122.709 161.487C122.642 161.381 122.562 161.357 122.468 161.416L122.329 161.503L122.708 162.105ZM123.548 163.297C123.72 163.189 123.754 163.054 123.652 162.891L123.546 162.723C123.487 162.629 123.426 162.564 123.363 162.528C123.301 162.491 123.231 162.496 123.154 162.545L123.032 162.621L123.48 163.334C123.491 163.329 123.502 163.324 123.514 163.318C123.527 163.31 123.538 163.303 123.548 163.297ZM124.974 163.157L124.622 162.598L125.294 162.176L125.645 162.735L124.974 163.157ZM125.866 162.599L124.026 159.672L124.664 159.271L126.504 162.198L125.866 162.599ZM127.573 161.568C127.303 161.737 127.049 161.784 126.81 161.707C126.571 161.629 126.359 161.443 126.174 161.149L125.424 159.956C125.246 159.672 125.18 159.413 125.228 159.181C125.276 158.947 125.432 158.746 125.696 158.581C125.961 158.414 126.209 158.36 126.44 158.419C126.67 158.477 126.874 158.648 127.053 158.932L127.803 160.125C127.988 160.419 128.063 160.691 128.03 160.94C127.996 161.189 127.844 161.398 127.573 161.568ZM127.209 160.975C127.271 160.936 127.294 160.882 127.278 160.814C127.26 160.745 127.226 160.67 127.176 160.59L126.375 159.316C126.338 159.257 126.296 159.207 126.247 159.166C126.198 159.124 126.141 159.123 126.076 159.164C126.012 159.204 125.983 159.256 125.99 159.32C125.998 159.381 126.023 159.447 126.067 159.517L126.867 160.789C126.921 160.876 126.975 160.939 127.028 160.979C127.081 161.019 127.141 161.017 127.209 160.975ZM128.543 160.916L127.229 157.117L127.912 156.688L129.225 160.488L128.543 160.916ZM130.975 159.429C130.7 159.602 130.449 159.653 130.222 159.581C129.995 159.507 129.786 159.321 129.598 159.02L128.313 156.977L128.955 156.574L130.235 158.61C130.269 158.665 130.306 158.716 130.344 158.763C130.382 158.809 130.422 158.841 130.465 158.86C130.508 158.878 130.555 158.872 130.605 158.84C130.656 158.808 130.683 158.769 130.686 158.724C130.688 158.677 130.676 158.626 130.648 158.572C130.622 158.517 130.592 158.462 130.557 158.407L129.278 156.371L129.919 155.968L131.204 158.011C131.393 158.311 131.471 158.58 131.438 158.816C131.405 159.052 131.25 159.256 130.975 159.429ZM132.816 158.272C132.514 158.462 132.25 158.524 132.021 158.458C131.794 158.391 131.578 158.194 131.372 157.866L131.305 157.759L131.958 157.349L132.082 157.546C132.129 157.622 132.178 157.675 132.228 157.704C132.279 157.732 132.333 157.728 132.391 157.692C132.451 157.654 132.482 157.612 132.485 157.567C132.488 157.519 132.471 157.465 132.432 157.404C132.381 157.322 132.31 157.271 132.22 157.249C132.131 157.227 131.993 157.207 131.808 157.189L131.383 157.147C131.203 157.129 131.052 157.079 130.93 156.997C130.809 156.915 130.697 156.792 130.595 156.629C130.435 156.375 130.376 156.136 130.416 155.912C130.458 155.687 130.602 155.496 130.85 155.341C131.153 155.15 131.417 155.094 131.642 155.173C131.869 155.25 132.078 155.441 132.27 155.747L131.6 156.168L131.499 156.006C131.431 155.899 131.347 155.876 131.247 155.939C131.197 155.971 131.17 156.009 131.165 156.054C131.159 156.098 131.171 156.143 131.2 156.189C131.229 156.235 131.267 156.272 131.314 156.3C131.362 156.326 131.446 156.346 131.567 156.361L132.143 156.431C132.352 156.456 132.532 156.509 132.681 156.588C132.83 156.667 132.967 156.805 133.091 157.003C133.177 157.14 133.233 157.285 133.259 157.436C133.286 157.587 133.266 157.735 133.2 157.879C133.133 158.023 133.005 158.154 132.816 158.272ZM133.788 157.62L131.948 154.693L132.783 154.168C132.965 154.053 133.138 154 133.301 154.009C133.465 154.018 133.619 154.078 133.762 154.188C133.904 154.298 134.035 154.449 134.157 154.642C134.273 154.827 134.353 155.004 134.397 155.174C134.441 155.344 134.435 155.502 134.379 155.649C134.324 155.795 134.205 155.925 134.023 156.04L133.792 156.185L134.437 157.212L133.788 157.62ZM133.419 155.592L133.457 155.569C133.579 155.492 133.634 155.412 133.62 155.33C133.607 155.247 133.566 155.151 133.497 155.041C133.433 154.94 133.367 154.866 133.3 154.819C133.232 154.771 133.149 154.778 133.049 154.841L132.976 154.887L133.419 155.592ZM136.411 156.013C136.141 156.182 135.886 156.229 135.648 156.152C135.408 156.074 135.196 155.888 135.012 155.594L134.261 154.4C134.083 154.117 134.018 153.858 134.065 153.626C134.113 153.392 134.269 153.191 134.533 153.026C134.798 152.859 135.046 152.805 135.277 152.864C135.507 152.922 135.712 153.093 135.89 153.377L136.64 154.57C136.825 154.864 136.901 155.136 136.867 155.385C136.833 155.634 136.681 155.843 136.411 156.013ZM136.046 155.42C136.109 155.381 136.132 155.327 136.115 155.259C136.098 155.189 136.064 155.115 136.013 155.035L135.213 153.761C135.176 153.702 135.133 153.652 135.084 153.611C135.035 153.569 134.978 153.568 134.913 153.609C134.849 153.649 134.821 153.701 134.828 153.765C134.835 153.826 134.861 153.892 134.905 153.962L135.704 155.234C135.759 155.321 135.812 155.384 135.865 155.424C135.918 155.464 135.979 155.462 136.046 155.42ZM137.473 155.303L135.633 152.376L136.627 151.751C136.796 151.645 136.947 151.6 137.081 151.615C137.216 151.63 137.339 151.689 137.45 151.794C137.56 151.897 137.666 152.029 137.767 152.189C137.893 152.391 137.966 152.568 137.985 152.72C138.004 152.872 137.966 153.008 137.87 153.129C137.993 153.077 138.103 153.077 138.201 153.131C138.301 153.183 138.393 153.277 138.478 153.412L139.045 154.315L138.39 154.726L137.796 153.781C137.735 153.685 137.678 153.638 137.624 153.64C137.57 153.641 137.499 153.669 137.412 153.724L138.141 154.883L137.473 155.303ZM137.056 153.149L137.215 153.049C137.307 152.992 137.291 152.865 137.168 152.67C137.094 152.553 137.036 152.481 136.992 152.456C136.948 152.43 136.898 152.434 136.843 152.469L136.689 152.566L137.056 153.149ZM139.587 153.974L138.146 151.681L137.754 151.928L137.355 151.293L138.8 150.385L139.199 151.02L138.807 151.266L140.248 153.559L139.587 153.974ZM141.627 152.734C141.325 152.923 141.061 152.985 140.832 152.919C140.606 152.852 140.389 152.655 140.183 152.327L140.116 152.22L140.769 151.81L140.893 152.007C140.941 152.083 140.99 152.136 141.04 152.166C141.09 152.193 141.144 152.189 141.202 152.153C141.262 152.115 141.293 152.074 141.296 152.028C141.299 151.981 141.282 151.926 141.243 151.865C141.192 151.784 141.121 151.732 141.031 151.711C140.942 151.688 140.804 151.668 140.619 151.65L140.194 151.608C140.014 151.591 139.863 151.541 139.741 151.458C139.62 151.376 139.508 151.253 139.406 151.091C139.246 150.837 139.187 150.598 139.227 150.373C139.269 150.148 139.413 149.958 139.661 149.802C139.964 149.612 140.228 149.556 140.453 149.634C140.68 149.711 140.889 149.903 141.081 150.208L140.411 150.629L140.31 150.468C140.242 150.36 140.158 150.338 140.058 150.401C140.008 150.432 139.981 150.47 139.976 150.515C139.97 150.559 139.982 150.604 140.011 150.65C140.04 150.697 140.078 150.734 140.125 150.762C140.173 150.787 140.257 150.808 140.378 150.822L140.954 150.893C141.163 150.918 141.343 150.97 141.492 151.049C141.641 151.128 141.778 151.266 141.902 151.464C141.989 151.602 142.045 151.746 142.07 151.898C142.097 152.049 142.077 152.196 142.011 152.341C141.944 152.484 141.816 152.615 141.627 152.734ZM142.599 152.081L140.759 149.154L141.594 148.629C141.776 148.514 141.949 148.462 142.112 148.471C142.276 148.479 142.43 148.539 142.573 148.65C142.715 148.76 142.847 148.911 142.968 149.103C143.084 149.288 143.164 149.466 143.208 149.635C143.252 149.805 143.246 149.963 143.19 150.11C143.135 150.256 143.016 150.387 142.834 150.502L142.603 150.647L143.248 151.673L142.599 152.081ZM142.23 150.054L142.268 150.03C142.39 149.953 142.445 149.873 142.431 149.791C142.418 149.709 142.377 149.612 142.308 149.502C142.244 149.401 142.178 149.327 142.111 149.281C142.044 149.232 141.96 149.239 141.86 149.302L141.787 149.348L142.23 150.054ZM144.815 150.688L144.132 149.602L142.448 148.093L143.102 147.681L143.99 148.686L143.47 147.45L144.123 147.039L144.755 149.21L145.438 150.297L144.815 150.688ZM146.038 149.919L144.723 146.12L145.406 145.691L146.719 149.491L146.038 149.919Z" fill="white"/>
<path d="M20.9589 104C18.5743 104 16.8183 103.542 15.691 102.627C14.5637 101.705 14 100.35 14 98.5647V84.1786H19.5606V98.4085C19.5606 98.7359 19.5877 99.0521 19.6419 99.3571C19.6961 99.6548 19.8208 99.9003 20.0159 100.094C20.211 100.287 20.5254 100.384 20.9589 100.384C21.4034 100.384 21.7231 100.291 21.9182 100.105C22.1133 99.9115 22.2326 99.6622 22.2759 99.3571C22.3301 99.0521 22.3572 98.7359 22.3572 98.4085V84.1786H27.9179V98.5647C27.9179 100.35 27.3542 101.705 26.2269 102.627C25.0996 103.542 23.3436 104 20.9589 104Z" fill="white"/>
<path d="M36.9092 104C34.2969 104 32.4108 103.554 31.251 102.661C30.102 101.768 29.5275 100.347 29.5275 98.3973V96.4777H35.1857V98.933C35.1857 99.3869 35.2833 99.744 35.4784 100.004C35.6844 100.257 36.0366 100.384 36.5352 100.384C37.0555 100.384 37.4132 100.28 37.6084 100.071C37.8143 99.8631 37.9173 99.5208 37.9173 99.0446C37.9173 98.442 37.8306 97.9397 37.6571 97.5379C37.4837 97.1287 37.1802 96.7418 36.7466 96.3772C36.3239 96.0052 35.7331 95.5737 34.9744 95.0826L32.4054 93.4085C30.4868 92.1659 29.5275 90.7448 29.5275 89.1451C29.5275 87.471 30.0912 86.1949 31.2185 85.317C32.3566 84.439 33.9988 84 36.145 84C38.7682 84 40.6271 84.4799 41.7219 85.4397C42.8276 86.3996 43.3804 87.8579 43.3804 89.8147H37.5596V88.4643C37.5596 88.1964 37.4458 87.9881 37.2181 87.8393C37.0013 87.6905 36.7033 87.6161 36.3239 87.6161C35.8686 87.6161 35.5326 87.7054 35.3158 87.8839C35.1099 88.0551 35.0069 88.2783 35.0069 88.5536C35.0069 88.8289 35.1153 89.1265 35.3321 89.4464C35.5489 89.7664 35.977 90.1347 36.6165 90.5513L39.9172 92.7277C40.5784 93.1592 41.1854 93.6168 41.7382 94.1004C42.291 94.5766 42.7354 95.1347 43.0714 95.7746C43.4075 96.407 43.5755 97.1808 43.5755 98.096C43.5755 99.9412 43.0769 101.388 42.0796 102.438C41.0932 103.479 39.3698 104 36.9092 104Z" fill="white"/>
<path d="M45.4941 103.821V84.1786H53.0546C54.6372 84.1786 55.8891 84.4204 56.8105 84.904C57.7427 85.3876 58.4093 86.0759 58.8103 86.9688C59.2114 87.8616 59.4119 88.9256 59.4119 90.1607C59.4119 91.3512 59.2439 92.3891 58.9079 93.2746C58.5719 94.1525 57.9703 94.8333 57.1031 95.317C56.2468 95.8006 55.0274 96.0424 53.4448 96.0424H51.1197V103.821H45.4941ZM51.1197 92.5156H51.4449C52.5072 92.5156 53.1576 92.311 53.396 91.9018C53.6345 91.4926 53.7537 90.8899 53.7537 90.0938C53.7537 89.3497 53.6345 88.7768 53.396 88.375C53.1684 87.9658 52.621 87.7612 51.7539 87.7612H51.1197V92.5156Z" fill="white"/>
<path d="M68.0618 104C65.7747 104 64.0241 103.528 62.8101 102.583C61.6069 101.63 61.0053 100.257 61.0053 98.4643V89.1339C61.0053 87.4524 61.6015 86.1763 62.7939 85.3058C63.997 84.4353 65.753 84 68.0618 84C70.3706 84 72.1212 84.4353 73.3136 85.3058C74.5167 86.1763 75.1183 87.4524 75.1183 89.1339V98.4643C75.1183 100.257 74.5113 101.63 73.2973 102.583C72.0941 103.528 70.349 104 68.0618 104ZM68.1106 100.384C68.9778 100.384 69.4113 99.8073 69.4113 98.654V89.067C69.4113 88.0997 68.9886 87.6161 68.1431 87.6161C67.1893 87.6161 66.7123 88.1109 66.7123 89.1004V98.6763C66.7123 99.2865 66.8207 99.7254 67.0375 99.9933C67.2543 100.254 67.612 100.384 68.1106 100.384Z" fill="white"/>
<path d="M77.4271 103.821V84.1786H86.2071C87.6704 84.1786 88.776 84.4092 89.524 84.8705C90.2719 85.3244 90.7705 85.9643 91.0198 86.7902C91.28 87.6086 91.41 88.5722 91.41 89.6808C91.41 90.7522 91.2095 91.6079 90.8084 92.2478C90.4182 92.8876 89.6757 93.3304 88.5809 93.5759C89.4806 93.7024 90.1093 94.0112 90.467 94.5022C90.8355 94.9859 91.0198 95.6146 91.0198 96.3884V103.821H85.3779V96.1317C85.3779 95.5588 85.2044 95.2054 84.8576 95.0714C84.5216 94.9301 83.9742 94.8594 83.2154 94.8594V103.821H77.4271ZM83.2479 91.4554H84.63C85.4212 91.4554 85.8169 90.8638 85.8169 89.6808C85.8169 88.9144 85.7302 88.4122 85.5567 88.1741C85.3833 87.936 85.0581 87.817 84.5812 87.817H83.2479V91.4554Z" fill="white"/>
<path d="M95.7512 103.821V87.9509H92.3531V84.1786H104.873V87.9509H101.474V103.821H95.7512Z" fill="white"/>
<path d="M113.262 104C110.65 104 108.764 103.554 107.604 102.661C106.455 101.768 105.881 100.347 105.881 98.3973V96.4777H111.539V98.933C111.539 99.3869 111.636 99.744 111.832 100.004C112.038 100.257 112.39 100.384 112.888 100.384C113.409 100.384 113.766 100.28 113.962 100.071C114.167 99.8631 114.27 99.5208 114.27 99.0446C114.27 98.442 114.184 97.9397 114.01 97.5379C113.837 97.1287 113.533 96.7418 113.1 96.3772C112.677 96.0052 112.086 95.5737 111.328 95.0826L108.759 93.4085C106.84 92.1659 105.881 90.7448 105.881 89.1451C105.881 87.471 106.444 86.1949 107.572 85.317C108.71 84.439 110.352 84 112.498 84C115.121 84 116.98 84.4799 118.075 85.4397C119.181 86.3996 119.734 87.8579 119.734 89.8147H113.913V88.4643C113.913 88.1964 113.799 87.9881 113.571 87.8393C113.355 87.6905 113.056 87.6161 112.677 87.6161C112.222 87.6161 111.886 87.7054 111.669 87.8839C111.463 88.0551 111.36 88.2783 111.36 88.5536C111.36 88.8289 111.468 89.1265 111.685 89.4464C111.902 89.7664 112.33 90.1347 112.97 90.5513L116.27 92.7277C116.932 93.1592 117.539 93.6168 118.091 94.1004C118.644 94.5766 119.089 95.1347 119.425 95.7746C119.761 96.407 119.929 97.1808 119.929 98.096C119.929 99.9412 119.43 101.388 118.433 102.438C117.446 103.479 115.723 104 113.262 104Z" fill="white"/>
<path d="M121.847 103.821V84.1786H129.408C130.99 84.1786 132.242 84.4204 133.164 84.904C134.096 85.3876 134.762 86.0759 135.164 86.9688C135.565 87.8616 135.765 88.9256 135.765 90.1607C135.765 91.3512 135.597 92.3891 135.261 93.2746C134.925 94.1525 134.323 94.8333 133.456 95.317C132.6 95.8006 131.381 96.0424 129.798 96.0424H127.473V103.821H121.847ZM127.473 92.5156H127.798C128.86 92.5156 129.511 92.311 129.749 91.9018C129.988 91.4926 130.107 90.8899 130.107 90.0938C130.107 89.3497 129.988 88.7768 129.749 88.375C129.522 87.9658 128.974 87.7612 128.107 87.7612H127.473V92.5156Z" fill="white"/>
<path d="M141.049 103.821V97.3594L136.481 84.1786H142.155L143.748 90.8304L145.342 84.1786H151L146.447 97.3594V103.821H141.049Z" fill="white"/>
</svg>
